Patient4_TMGait_0pt7_02_right_12_EMG.mot
version=1
nRows=33
nColumns=33
inDegrees=no
endheader
time	1LAddLong	2LGlutMax	3LGlutMed	4LIliopsoas	5LSemiMemb	6LBicFemLong	7LRecFem	8LVastMed	9LVastLat	10LGasMed	11LTibAnt	12lTibPost	13LPeroneusLong	14LSol	15LExtDigLong	16LFlexDigLong	17RAddLong	18RGlutMax	19RGlutMed	20RIliopsoas	21RSemiMemb	22RBicFemLong	23RRecFem	24RVastMed	25RVastLat	26RGasMed	27RTibAnt	28RTibPost	29RPeroneusLong	30RSol	31RExtDigLong	32RFlexDigLong
14.028	-0.007629	0.11795	0.016479	0.011139	0.022736	-0.00412	0.15228	0.07019	0.11444	0.059814	0.21835	-0.051727	-0.20691	-0.060883	0.48981	0.011902	-0.022125	-0.12329	-0.24582	-0.025635	0.069275	-0.12512	-0.016632	-0.072479	0.005646	-0.000916	0.20081	-0.003815	0.034637	-0.007019	0.001526	-0.013733
14.029	-0.005646	0.10407	0.09613	-0.006409	0.007172	-0.13229	0.20462	0.001221	0.11734	-0.002747	0.14389	-0.093689	-0.11459	0.021515	0.40955	0.014496	-0.021362	-0.11139	-0.25696	-0.015106	-0.067444	-0.12222	0.016174	-0.09903	0.000153	-0.00061	0.19318	-0.003357	-0.24643	-0.051575	-0.000763	-0.014343
14.03	-0.006714	0.1268	0.032043	0.010834	0.018616	-0.1648	0.20676	0.001526	0.092926	-0.046997	0.034485	-0.17731	-0.031738	0.12405	0.040741	0.010681	0.004425	-0.047913	-0.33859	-0.089569	-0.21149	-0.054321	0.0354	-0.1239	-0.030518	-0.00885	0.10407	-0.01358	-0.084534	-0.03952	0.001831	-0.018311
14.031	-0.003662	0.14435	-0.052032	0.00946	0.03479	-0.077972	0.18448	0.006561	0.12253	-0.05661	0.032196	-0.27344	0.18326	0.15442	-0.080261	-0.014038	0.011292	-0.009155	-0.34714	-0.14603	-0.29358	-0.083923	-0.014191	-0.12528	0.004272	-0.010223	-0.04303	-0.003357	0.24765	-0.009918	0.000916	-0.00473
14.032	-0.02121	0.14526	-0.091858	-0.011444	0.001678	-0.00824	0.20859	0.008392	0.032196	-0.009766	0.044098	-0.28503	0.13763	0.10437	-0.043488	-0.020599	-0.007019	-0.006714	-0.41855	-0.1944	-0.28854	-0.13321	-0.035248	-0.053406	0.020294	-0.001984	-0.04776	-0.00351	0.10239	-0.015259	-0.000153	-0.002441
14.033	-0.009155	0.13855	-0.10147	0.007477	-0.015259	-0.034027	0.20325	0.015259	-0.009613	0.028992	-0.027161	-0.22919	0.19058	0.06958	-0.21668	-0.022583	-0.032196	-0.046692	-0.38193	-0.19714	-0.15747	-0.011749	0.009918	-0.017548	0.018921	-0.011292	0.12054	-0.010529	0.23392	-0.004272	0.003052	-0.00885
14.034	-0.005341	0.13657	0.016632	0.018158	-0.014648	-0.06073	0.17471	0.008698	0.041809	0.023041	-0.1413	-0.15091	0.14206	0.13931	-0.25192	0.003204	-0.03418	-0.073395	-0.3154	-0.016479	0.20966	0.13916	-0.040131	-0.012665	0.040436	-0.007782	0.19104	-0.002594	-0.24674	-0.054169	0.002441	-0.004883
14.035	-0.002136	0.12833	0.041351	0.007477	0.018921	-0.046997	0.18204	0.000305	0.01236	0.005188	-0.053711	-0.089264	-0.17105	0.1239	-0.65353	-0.004578	-0.049286	-0.090485	-0.22553	0.13962	0.23956	0.23895	0.031433	-0.050964	0.04425	-0.004883	0.20355	-0.007019	-0.43854	-0.057983	0.001984	0.002441
14.036	-0.010834	0.10407	0.004578	-0.00824	0.020294	-0.050049	0.26764	-0.02121	0.024261	-0.020447	0.007019	-0.036163	-0.15228	0.066986	-0.71701	-0.00885	-0.02594	-0.12772	-0.32303	0.14328	0.070648	0.39932	0.001068	-0.054779	0.0354	-0.002136	0.1445	-0.00351	-0.070343	-0.089874	0.000458	0.000458
14.037	0.004883	0.1236	0.037231	-0.012207	0.019379	-0.066833	0.36606	-0.015106	-0.033417	-0.010376	-0.10239	0.022125	-0.007782	-0.082703	-0.42221	-0.006866	-0.015717	-0.098572	-0.38238	0.22324	0.04776	0.30792	-0.039978	-0.06424	0.03006	-0.008698	-0.65689	0.004272	0.10452	-0.063171	0.002747	0.005798
14.038	0.003967	0.1004	0.036774	0.012817	0.033264	-0.053101	0.32059	-0.000305	0.047913	0.026398	-0.1181	0.014648	0.047913	-0.19806	-0.25055	-0.016632	-0.004578	-0.092926	-0.39124	0.20554	0.08728	0.12054	-0.031891	-0.040436	0.027771	-0.010071	-0.68359	-0.008392	0.000763	-0.02121	0.000763	0.015717
14.039	0.005646	0.084991	0.048065	0.003357	0.058441	-0.039368	0.32181	-0.003204	0.057983	0.033264	-0.11368	0.031738	0.001373	-0.17303	-0.032654	-0.009003	-0.009613	-0.020447	-0.45075	0.072784	0.12482	0.024872	-0.037689	-0.047607	0.051575	-0.02121	-0.19394	-0.003967	-0.019226	-0.023499	0.001831	0.002594
14.04	0.012512	0.10483	0.00061	0.007019	0.033875	-0.023499	0.33875	-0.00473	0.072937	0.045776	-0.063629	0.054779	-0.069275	-0.27298	0.006409	-0.001068	-0.008698	-0.028534	-0.43274	0.012207	0.013123	0.049896	-0.000916	-0.01297	0.030518	-0.018005	-0.014038	-0.005798	0.076904	-0.005798	0.002136	0.009155
14.041	0.019684	0.08194	-0.055695	0.003357	-0.017853	-0.030365	0.21774	0.010986	0.016174	0.066681	-0.073395	0.060577	-0.0383	-0.34988	0.070038	-0.000916	0.003815	0.00412	-0.34546	-0.055542	-0.086517	0.095825	0.021362	-0.063782	0.040131	-0.028534	0.091095	-0.009003	0.12589	-0.013275	0.00351	0.007172
14.042	0.015564	0.053101	-0.06546	-0.01709	0.028229	-0.060883	0.039063	0.018768	-0.027161	0.075073	-0.049286	0.078278	-0.047607	-0.20386	0.11444	-0.000153	0.019226	-0.032806	-0.26077	-0.028992	-0.052338	0.074768	0.053406	-0.1326	0.044708	-0.02243	0.16922	-0.00824	0.13901	0.000916	0.001373	-0.001373
14.043	0.018158	0.046844	-0.080414	-0.009766	0.05722	-0.010681	-0.021362	0.003357	-0.03067	0.060425	-0.038757	0.091248	-0.053558	-0.096283	0.14893	-0.004578	0.040588	-0.028534	-0.26855	-0.040894	-0.121	0.071869	0.04425	-0.12619	0.050507	-0.014496	0.13886	-0.006256	-0.22156	0.010223	0.001678	0.000458
14.044	0.015106	0.052032	-0.10757	-0.001221	0.035858	0.005798	0.15335	-0.009918	-0.003967	0.057068	0.022278	0.094452	-0.065613	-0.097656	0.20828	-0.007477	0.035706	-0.029144	-0.35568	-0.00946	-0.12161	0.049744	-0.0177	-0.061951	0.050354	-0.017548	0.13397	-0.008698	-0.5452	-0.009613	-0.003815	0.006714
14.045	-0.002899	0.051727	-0.097961	0.003052	0.034943	0.027161	0.19989	-0.005798	-0.041809	0.058899	0.080414	0.09552	-0.1001	-0.035553	0.18433	-0.006104	0.024719	-0.005951	-0.40878	-0.046844	-0.1471	-0.001526	-0.026703	-0.046844	0.048218	-0.017853	0.01236	-0.010071	-0.52506	0.005493	0.002136	-0.006256
14.046	-0.000153	0.020752	-0.072784	0.019684	0.030823	0.00351	0.14801	0.00351	-0.006104	0.049744	0.13168	0.11108	-0.14297	-0.015106	1.0048	-0.000153	0.055695	-0.015106	-0.39703	-0.10056	0.045471	0.000153	-0.014648	-0.045319	0.029144	-0.030365	-0.11368	-0.00412	0.38132	-0.005493	-0.001984	0.004883
14.047	0.013885	0.035858	-0.036316	0.036469	0.010529	0.006866	0.069885	-0.003357	0.076599	0.055084	0.18616	0.096893	-0.11017	0.04837	0.16388	-0.001373	0.077515	-0.052338	-0.35858	-0.093384	0.22049	-0.048523	-0.11032	-0.052185	0.045471	-0.03952	-0.087585	-0.011444	0.84137	0.002289	-0.000458	-0.004272
14.048	0.007019	0.056152	-0.048828	0.007019	0.025787	-0.021973	0.15488	-0.014343	0.054474	0.034027	0.18509	0.10086	-0.12543	0.099945	1.4378	0.007324	0.093994	-0.049591	-0.32913	-0.026703	0.1622	-0.11261	-0.12665	-0.076141	0.036469	-0.059204	-0.020447	-0.006866	0.085754	-0.012512	-0.002136	-0.004578
14.049	0.009308	0.07843	-0.043793	-0.008545	0.034637	-0.014038	0.16953	-0.007324	0.02243	-0.007019	0.027924	0.1001	0.020905	0.18906	-0.19531	0.012817	0.11185	0.000305	-0.44357	0.017853	-0.11398	-0.12268	-0.086823	-0.042725	0.031738	-0.06897	0.018616	-0.011749	-0.29648	-0.026703	-0.000458	-0.005341
14.05	0.007782	0.063324	-0.060425	0.001373	0.039215	0.001221	0.11597	-0.018768	-0.013275	-0.076141	-0.088959	0.10468	0.18601	0.27023	-0.36484	0.004272	0.082703	-0.10361	-0.46616	0.033875	-0.32364	-0.12283	-0.073242	-0.088654	0.006104	-0.093079	0.028381	-0.010223	-0.11841	-0.022888	-0.003662	-0.005646
14.051	0.00946	0.063019	-0.078583	0.022278	0.014801	0.008545	0.17029	-0.014343	0.047607	-0.060883	-0.27786	0.10223	0.20706	0.18768	-0.89172	-0.003967	-0.009918	-0.078583	-0.49911	-0.023193	-0.3772	-0.084381	-0.068512	-0.010986	0.020142	-0.12344	0.034943	-0.013123	-0.09201	0.010986	0.001984	-0.00824
14.052	-0.005341	0.097656	-0.10315	0.002594	0.021667	0.018311	0.19363	-0.010681	0.078888	-0.03952	-0.36392	0.096741	0.16632	0.085754	-0.95688	-0.003357	-0.089569	-0.089111	-0.76996	-0.019226	-0.082092	0.072937	-0.067596	0.010223	0.02182	-0.16541	0.055847	-0.011139	-0.13718	0.00946	-0.001221	-0.010681
14.053	-0.004272	0.091705	-0.059052	-0.003357	0.021973	0.02121	0.22964	-0.004272	0.069275	-0.011444	-0.14374	0.096436	0.093842	-0.000458	-0.84824	-0.024719	-0.097351	-0.071106	-0.75501	-0.063629	0.17181	0.11276	-0.098419	0.029602	0.029602	-0.21164	0.066071	-0.011444	0.02121	-0.018768	0.00061	-0.019684
14.054	0.003662	0.11276	-0.048676	0.00946	0.009308	0	0.23132	0.001373	0.045166	0.011444	-0.003815	0.088654	0.023193	-0.079346	-0.3363	-0.018158	-0.093231	-0.049438	-0.23911	-0.073395	0.29526	0.14023	-0.072784	0.020905	0.015259	-0.2446	0.052032	-0.011444	0.15595	-0.028229	0.001831	-0.010681
14.055	-0.001678	0.11887	-0.065155	0.018463	-0.020142	0.007782	0.20401	0.001526	0.036926	0.019379	-0.020142	0.084839	-0.03891	-0.022583	0.24887	-0.005646	-0.04837	-0.052795	-0.081482	-0.030518	0.1474	0.10803	-0.01709	-0.033722	-0.012054	-0.1767	0.051575	-0.006866	0.14984	-0.034637	0.008392	-0.002136
14.056	0.003204	0.14984	-0.0914	0.002594	-0.012512	0.015564	0.17593	0.006104	0.008392	0.040436	-0.088959	0.082092	-0.10437	-0.022278	0.32135	-0.006409	-0.017395	-0.066681	-0.16205	0.041504	0.14557	0.099487	-0.068359	-0.042267	0.001373	-0.024414	0.050964	-0.008392	0.17929	-0.046082	-0.001373	-0.00885
14.057	0.001831	0.13016	-0.098572	0.020599	0.041504	-0.014038	0.20142	-0.00351	0.046387	0.021057	-0.09491	0.083313	-0.095673	-0.054779	0.38483	-0.015259	-0.033112	-0.074158	-0.25345	0.025024	0.064087	0.071411	-0.058746	-0.028839	0.03067	0.17929	0.048981	-0.007172	0.092163	-0.036316	0.000305	-0.002289
14.058	0.005951	0.16205	-0.086823	0.000305	0.044861	-0.039215	0.23727	-0.007172	0.029449	-0.008698	0.14481	0.07782	-0.070038	0.039215	0.45715	0.00885	-0.027313	-0.059204	-0.31723	0.000763	0.038452	0.09552	-0.035858	-0.036011	0.012512	0.3746	0.061646	-0.012817	-0.038452	0.007172	-0.000916	-0.000305
14.059	0.005646	0.18799	0.008698	0.009155	0.022888	-0.023346	0.26916	-0.014954	0.008087	-0.022583	0.22385	0.068512	-0.032501	-0.018005	-0.069885	0.003357	-0.03006	-0.081177	-0.41596	-0.053864	-0.11932	0.14679	-0.049896	-0.026703	0.027161	0.52734	0.052643	-0.007629	-0.084076	0.023041	-0.002594	0.003204
14.06	-0.00412	0.19547	-0.03418	-0.003357	0.018463	-0.008698	0.25162	-0.018616	-0.02655	0.004425	0.31601	0.072021	-0.017853	-0.10773	-0.5452	-0.010376	-0.032196	-0.067139	-0.45593	-0.018005	-0.00412	0.045013	-0.023041	-0.055847	0.036163	0.58991	0.014954	-0.007782	-0.048065	-0.063324	-0.001984	0.006561
